<?xml version="1.0" encoding="UTF-8"?>
<!-- Generated by Pixelmator Pro 3.7 -->
<svg width="209" height="254" viewBox="0 0 209 254" xmlns="http://www.w3.org/2000/svg">
    <path id="Shape-copy-3" fill="#0a3161" fill-rule="evenodd" stroke="none" d="M 102.567719 239.501907 C 78.046906 239.403824 50.889099 239.179031 42.217102 239.002335 C 28.440674 238.721588 25.860138 238.317688 21.779572 235.803375 C 19.210938 234.220673 15.589447 230.614441 13.731827 227.789551 C 11.794022 224.842682 9.730759 219.49054 8.891403 215.233276 C 8.086792 211.152191 7.714722 205.405853 8.064606 202.463623 C 8.414459 199.521423 9.03035 196.471771 9.433228 195.686646 C 9.961472 194.657135 11.415726 194.661011 14.648804 195.700378 C 17.114502 196.493042 22.980377 197.148315 27.684143 197.156616 C 32.387878 197.164825 41.302551 196.114105 47.494446 194.821594 C 53.68634 193.529083 64.829163 190.219269 72.256165 187.466431 C 79.683197 184.713531 91.498932 180.249969 98.513397 177.547272 C 111.266907 172.633392 111.266907 172.633392 141.429688 172.092773 C 171.59256 171.552155 171.59256 171.552155 176.226471 167.798828 C 179.817108 164.890594 181.14035 164.4021 182.103699 165.62912 C 182.787567 166.500122 186.090515 173.450806 189.443634 181.075073 C 195.465912 194.768219 195.540009 195.071899 195.514923 205.959198 C 195.492981 215.464142 195.081482 217.875458 192.524567 223.480438 C 190.822845 227.210693 187.554565 231.671448 184.853699 233.950165 C 180.268677 237.818451 179.724091 237.943024 163.649445 238.800308 C 154.575317 239.284225 127.088531 239.59996 102.567719 239.501907 Z"/>
    <path id="Shape-copy-2" fill="#b31942" fill-rule="evenodd" stroke="none" d="M 57.95578 28.477142 C 61 30.051361 61 30.051361 61 92.316895 L 37.783783 133.908447 C 25.014862 156.783813 11.939507 180.674988 8.72744 187 C 4.47419 195.375244 2.609665 200.334091 1.865456 205.25 C 1.165764 209.871811 1.170158 214.097672 1.879387 218.653183 C 2.449081 222.312439 4.146423 227.824936 5.65126 230.903183 C 7.15609 233.98143 10.596474 238.653381 13.296547 241.285294 C 15.99662 243.917206 20.407639 247.186356 23.098808 248.550064 C 25.789978 249.913788 29.681183 251.436386 31.745926 251.93364 C 33.834763 252.436676 66.550629 252.762802 105.5 252.668854 C 175.5 252.5 175.5 252.5 180.863831 250.219727 C 183.813934 248.965576 188.183136 246.594055 190.573151 244.949677 C 192.963165 243.305283 196.737122 239.42041 198.959717 236.31662 C 201.182281 233.212814 203.788086 228.172516 204.750397 225.115952 C 205.883392 221.51709 206.474487 216.552689 206.427612 211.029282 C 206.385559 206.072479 205.644867 200.167297 204.65918 196.930664 C 203.726349 193.867523 190.146423 168.676147 174.481567 140.949829 L 146 90.538361 L 146.006317 60.019165 C 146.01265 29.5 146.01265 29.5 148.935608 27.837097 C 150.543228 26.922516 152.615509 24.710419 153.540649 22.921387 C 154.690567 20.697693 155.064117 18.261169 154.721329 15.220062 C 154.445557 12.773376 153.382935 9.6633 152.359955 8.308807 C 151.336975 6.954285 149.2491 5.093201 147.72023 4.173035 C 145.239029 2.679718 140.431427 2.5 102.961655 2.5 C 67.187439 2.5 60.580994 2.725494 58.263931 4.025726 C 56.768524 4.864868 54.522385 7.068909 53.272507 8.923584 C 51.823776 11.073364 51.001358 13.782776 51.003738 16.397888 C 51.005829 18.700348 51.863861 21.90451 52.959518 23.701447 C 54.033142 25.46225 56.281448 27.611298 57.95578 28.477142 Z M 65.924568 13.459642 C 66.041687 13.52053 66.145958 13.575306 66.239548 13.62583 C 66.206062 13.607921 66.172455 13.590026 66.13871 13.572133 C 66.063858 13.532445 65.995537 13.496591 65.924568 13.459642 Z M 84 31 L 123 31 L 123 63.670135 C 123 96.340302 123 96.340302 130.680984 109.920135 C 134.905518 117.389069 143.263641 132.049988 149.254578 142.5 C 155.245514 152.950012 161.236862 163.376343 162.568665 165.669647 C 163.299438 166.927994 163.809662 167.806595 163.582001 168.403961 C 163.055267 169.786057 158.57869 169.662796 143.745071 169.254395 C 130.508347 168.889954 119.173508 169.087372 113.675278 169.778107 C 107.632202 170.537262 98.806335 172.955841 85.675278 177.451019 C 75.128876 181.061401 62 184.863739 56.5 185.900665 C 51 186.937592 43.628204 188.088196 40.11824 188.45755 C 34.230507 189.077148 33.790207 188.989105 34.430573 187.320313 C 34.812332 186.3255 38.042374 180.233002 41.608444 173.781464 C 45.174515 167.329926 56.17041 147.527313 66.043747 129.775696 L 83.995285 97.5 L 83.99765 64.25 L 84 31 Z M 98.5 104.045959 C 99.600006 104.500977 102.015442 104.901764 103.867645 104.936615 C 106.492233 104.986023 108.091934 104.143372 111.117645 101.117645 C 114.170334 98.064972 115 96.476105 115 93.682739 C 115 91.728851 114.561218 88.976105 114.024933 87.565552 C 113.488632 86.154999 111.576141 84.102386 109.774933 83.004211 C 107.973709 81.906006 105.10405 81.005798 103.397888 81.003723 C 101.691711 81.001678 98.77327 82.026001 96.912445 83.280029 C 95.051636 84.534027 92.942459 86.671509 92.225403 88.030029 C 91.500244 89.403839 91.124557 92.207825 91.37886 94.348297 C 91.632141 96.480286 92.876083 99.316498 94.16803 100.707642 C 95.450607 102.088745 97.399994 103.590973 98.5 104.045959 Z M 100.995285 97.501205 L 100.995277 97.561684 C 101.662453 97.965157 101.830193 98.001823 103.377518 98.003708 C 105.277832 98.005989 105.612915 97.9095 106.34037 97.426147 C 106.568375 97.133591 106.819687 96.764091 107.109756 96.24234 C 106.769867 94.070114 106.532654 91.741913 106.371384 89.156319 C 106.368095 89.103645 106.364838 89.051041 106.36161 88.998482 C 106.012329 88.795326 105.582497 88.578613 104.998055 88.336876 C 104.531357 88.143829 104.179535 88.023308 103.889923 87.940216 C 103.019119 87.959419 102.010437 88.130051 100.995926 88.46862 L 100.995285 97.501205 Z M 89.030014 154.720703 C 90.388504 155.408081 93.644104 155.977142 96.264679 155.98526 C 100.281906 155.997681 101.600296 155.476776 104.668747 152.664764 C 107.833923 149.764099 108.368149 148.605804 108.768738 143.775208 C 109.203873 138.528107 109.033661 138.007355 105.691513 134.360443 C 102.274628 130.631989 101.929489 130.5 95.596069 130.5 C 89.570663 130.5 88.782242 130.756226 85.881363 133.657104 C 83.434082 136.10437 82.622818 137.903046 82.27301 141.657104 C 81.907608 145.578644 82.272491 147.163086 84.190903 149.985443 C 85.493927 151.902405 87.671524 154.033295 89.030014 154.720703 Z M 96.705208 139.551941 C 96.387939 139.391403 96.111671 139.263916 95.866478 139.16095 C 95.46209 139.25943 95.026756 139.395279 94.575623 139.573532 C 94.069588 139.773468 93.624794 139.994064 93.250008 140.214035 C 92.925499 140.664856 92.602005 141.208603 92.318253 141.823837 C 92.241356 141.99057 92.172073 142.151688 92.109886 142.306412 C 92.195419 142.747467 92.3181 143.229935 92.487846 143.749268 C 92.731987 144.496216 93.020523 145.149445 93.323624 145.70668 C 93.962601 146.135254 94.720871 146.542221 95.584297 146.879303 C 96.484413 146.512817 97.302101 146.045197 97.975151 145.540466 C 97.98436 145.533569 97.993408 145.526764 98.002289 145.52005 C 98.278702 145.141434 98.553711 144.674454 98.787247 144.156693 C 98.91909 143.86438 99.024033 143.587433 99.10405 143.336639 C 99.071686 143.063644 99.019394 142.754852 98.941925 142.418457 C 98.781067 141.71991 98.547089 141.074646 98.28653 140.544647 C 98.278603 140.528519 98.270844 140.512894 98.26326 140.497757 C 97.890495 140.216888 97.41011 139.90863 96.705208 139.551941 Z M 180.130676 186.255692 C 178.984589 184.129654 177.765701 181.883255 176.486649 179.53952 C 175.625534 180.568909 174.641037 181.510239 173.543289 182.341751 C 170.81485 184.408447 168.138397 185.387589 165.212128 185.94487 C 161.254227 186.698608 159.215927 186.686783 143.277191 186.247955 C 130.850388 185.905807 120.206779 186.091187 115.794228 186.645538 C 111.194099 187.223419 103.291077 189.389099 91.181252 193.534683 C 79.929863 197.386414 66.115005 201.387421 59.649559 202.606354 C 53.732002 203.722015 45.928349 204.940018 41.897419 205.364197 C 35.959522 205.989075 34.731228 206.064545 31.493214 205.417114 C 27.691513 204.656967 24.082815 202.777267 21.434959 199.734375 C 19.728981 203.461594 18.976303 205.797287 18.673933 207.794617 C 18.232285 210.711929 18.234869 213.197906 18.677034 216.038025 C 18.989471 218.044876 20.183119 221.921509 20.923973 223.436981 C 21.152445 223.904327 21.845587 225.00116 22.714586 226.181229 C 23.628824 227.422745 24.574568 228.538498 25.162725 229.111801 C 25.887381 229.818161 27.071785 230.80777 28.323338 231.735336 C 29.448549 232.569275 30.452126 233.218185 30.783096 233.38591 C 31.983232 233.994064 33.806355 234.74176 34.913391 235.141663 C 35.912918 235.187927 37.325302 235.234634 39.101448 235.279327 C 42.943436 235.375961 48.346428 235.45993 54.969719 235.525955 C 68.584145 235.661682 86.550865 235.714508 105.458992 235.6689 C 112.530746 235.65184 115.457588 235.644669 118.960808 235.63559 C 148.697968 235.558578 159.681213 235.476822 166.809433 235.246948 C 170.232834 235.136551 172.32576 234.995377 173.472229 234.836121 C 173.552002 234.825043 173.612213 234.816223 173.655518 234.809784 C 173.764923 234.764694 173.925537 234.696915 174.212845 234.574783 C 176.140549 233.75528 179.509491 231.926666 180.937149 230.944412 C 181.577744 230.503662 183.994827 228.015533 185.13797 226.419174 C 185.703781 225.629028 186.498032 224.300232 187.226425 222.891327 C 187.895782 221.596634 188.400269 220.438934 188.534988 220.011002 C 189.074066 218.298645 189.461105 215.048035 189.428223 211.173508 C 189.413376 209.423508 189.270126 207.369568 189.029434 205.450684 C 188.867996 204.16362 188.675568 203.058701 188.522415 202.377274 C 188.478806 202.283386 188.429855 202.179077 188.3759 202.065262 C 187.971909 201.213074 187.377563 200.017227 186.616608 198.528732 C 185.044052 195.452713 182.832306 191.267349 180.130676 186.255692 Z"/>
    <g id="Group-copy">
        <path id="Shape" fill="#b31942" fill-rule="evenodd" stroke="none" d="M 57.95578 28.477142 C 61 30.051361 61 30.051361 61 92.316895 L 37.783783 133.908447 C 25.014862 156.783813 11.939507 180.674988 8.72744 187 C 4.47419 195.375244 2.609665 200.334091 1.865456 205.25 C 1.165764 209.871811 1.170158 214.097672 1.879387 218.653183 C 2.449081 222.312439 4.146423 227.824936 5.65126 230.903183 C 7.15609 233.98143 10.596474 238.653381 13.296547 241.285294 C 15.99662 243.917206 20.407639 247.186356 23.098808 248.550064 C 25.789978 249.913788 29.681183 251.436386 31.745926 251.93364 C 33.834763 252.436676 66.550629 252.762802 105.5 252.668854 C 175.5 252.5 175.5 252.5 180.863831 250.219727 C 183.813934 248.965576 188.183136 246.594055 190.573151 244.949677 C 192.963165 243.305283 196.737122 239.42041 198.959717 236.31662 C 201.182281 233.212814 203.788086 228.172516 204.750397 225.115952 C 205.883392 221.51709 206.474487 216.552689 206.427612 211.029282 C 206.385559 206.072479 205.644867 200.167297 204.65918 196.930664 C 203.726349 193.867523 190.146423 168.676147 174.481567 140.949829 L 146 90.538361 L 146.006317 60.019165 C 146.01265 29.5 146.01265 29.5 148.935608 27.837097 C 150.543228 26.922516 152.615509 24.710419 153.540649 22.921387 C 154.690567 20.697693 155.064117 18.261169 154.721329 15.220062 C 154.445557 12.773376 153.382935 9.6633 152.359955 8.308807 C 151.336975 6.954285 149.2491 5.093201 147.72023 4.173035 C 145.239029 2.679718 140.431427 2.5 102.961655 2.5 C 67.187439 2.5 60.580994 2.725494 58.263931 4.025726 C 56.768524 4.864868 54.522385 7.068909 53.272507 8.923584 C 51.823776 11.073364 51.001358 13.782776 51.003738 16.397888 C 51.005829 18.700348 51.863861 21.90451 52.959518 23.701447 C 54.033142 25.46225 56.281448 27.611298 57.95578 28.477142 Z M 65.924568 13.459642 C 66.041687 13.52053 66.145958 13.575306 66.239548 13.62583 C 66.206062 13.607921 66.172455 13.590026 66.13871 13.572133 C 66.063858 13.532445 65.995537 13.496591 65.924568 13.459642 Z M 84 31 L 123 31 L 123 63.670135 C 123 96.340302 123 96.340302 130.680984 109.920135 C 134.905518 117.389069 143.263641 132.049988 149.254578 142.5 C 155.245514 152.950012 161.236862 163.376343 162.568665 165.669647 C 163.299438 166.927994 163.809662 167.806595 163.582001 168.403961 C 163.055267 169.786057 158.57869 169.662796 143.745071 169.254395 C 130.508347 168.889954 119.173508 169.087372 113.675278 169.778107 C 107.632202 170.537262 98.806335 172.955841 85.675278 177.451019 C 75.128876 181.061401 62 184.863739 56.5 185.900665 C 51 186.937592 43.628204 188.088196 40.11824 188.45755 C 34.230507 189.077148 33.790207 188.989105 34.430573 187.320313 C 34.812332 186.3255 38.042374 180.233002 41.608444 173.781464 C 45.174515 167.329926 56.17041 147.527313 66.043747 129.775696 L 83.995285 97.5 L 83.99765 64.25 L 84 31 Z M 98.5 104.045959 C 99.600006 104.500977 102.015442 104.901764 103.867645 104.936615 C 106.492233 104.986023 108.091934 104.143372 111.117645 101.117645 C 114.170334 98.064972 115 96.476105 115 93.682739 C 115 91.728851 114.561218 88.976105 114.024933 87.565552 C 113.488632 86.154999 111.576141 84.102386 109.774933 83.004211 C 107.973709 81.906006 105.10405 81.005798 103.397888 81.003723 C 101.691711 81.001678 98.77327 82.026001 96.912445 83.280029 C 95.051636 84.534027 92.942459 86.671509 92.225403 88.030029 C 91.500244 89.403839 91.124557 92.207825 91.37886 94.348297 C 91.632141 96.480286 92.876083 99.316498 94.16803 100.707642 C 95.450607 102.088745 97.399994 103.590973 98.5 104.045959 Z M 100.995285 97.501205 L 100.995277 97.561684 C 101.662453 97.965157 101.830193 98.001823 103.377518 98.003708 C 105.277832 98.005989 105.612915 97.9095 106.34037 97.426147 C 106.568375 97.133591 106.819687 96.764091 107.109756 96.24234 C 106.769867 94.070114 106.532654 91.741913 106.371384 89.156319 C 106.368095 89.103645 106.364838 89.051041 106.36161 88.998482 C 106.012329 88.795326 105.582497 88.578613 104.998055 88.336876 C 104.531357 88.143829 104.179535 88.023308 103.889923 87.940216 C 103.019119 87.959419 102.010437 88.130051 100.995926 88.46862 L 100.995285 97.501205 Z M 89.030014 154.720703 C 90.388504 155.408081 93.644104 155.977142 96.264679 155.98526 C 100.281906 155.997681 101.600296 155.476776 104.668747 152.664764 C 107.833923 149.764099 108.368149 148.605804 108.768738 143.775208 C 109.203873 138.528107 109.033661 138.007355 105.691513 134.360443 C 102.274628 130.631989 101.929489 130.5 95.596069 130.5 C 89.570663 130.5 88.782242 130.756226 85.881363 133.657104 C 83.434082 136.10437 82.622818 137.903046 82.27301 141.657104 C 81.907608 145.578644 82.272491 147.163086 84.190903 149.985443 C 85.493927 151.902405 87.671524 154.033295 89.030014 154.720703 Z M 96.705208 139.551941 C 96.387939 139.391403 96.111671 139.263916 95.866478 139.16095 C 95.46209 139.25943 95.026756 139.395279 94.575623 139.573532 C 94.069588 139.773468 93.624794 139.994064 93.250008 140.214035 C 92.925499 140.664856 92.602005 141.208603 92.318253 141.823837 C 92.241356 141.99057 92.172073 142.151688 92.109886 142.306412 C 92.195419 142.747467 92.3181 143.229935 92.487846 143.749268 C 92.731987 144.496216 93.020523 145.149445 93.323624 145.70668 C 93.962601 146.135254 94.720871 146.542221 95.584297 146.879303 C 96.484413 146.512817 97.302101 146.045197 97.975151 145.540466 C 97.98436 145.533569 97.993408 145.526764 98.002289 145.52005 C 98.278702 145.141434 98.553711 144.674454 98.787247 144.156693 C 98.91909 143.86438 99.024033 143.587433 99.10405 143.336639 C 99.071686 143.063644 99.019394 142.754852 98.941925 142.418457 C 98.781067 141.71991 98.547089 141.074646 98.28653 140.544647 C 98.278603 140.528519 98.270844 140.512894 98.26326 140.497757 C 97.890495 140.216888 97.41011 139.90863 96.705208 139.551941 Z M 180.130676 186.255692 C 178.984589 184.129654 177.765701 181.883255 176.486649 179.53952 C 175.625534 180.568909 174.641037 181.510239 173.543289 182.341751 C 170.81485 184.408447 168.138397 185.387589 165.212128 185.94487 C 161.254227 186.698608 159.215927 186.686783 143.277191 186.247955 C 130.850388 185.905807 120.206779 186.091187 115.794228 186.645538 C 111.194099 187.223419 103.291077 189.389099 91.181252 193.534683 C 79.929863 197.386414 66.115005 201.387421 59.649559 202.606354 C 53.732002 203.722015 45.928349 204.940018 41.897419 205.364197 C 35.959522 205.989075 34.731228 206.064545 31.493214 205.417114 C 27.691513 204.656967 24.082815 202.777267 21.434959 199.734375 C 19.728981 203.461594 18.976303 205.797287 18.673933 207.794617 C 18.232285 210.711929 18.234869 213.197906 18.677034 216.038025 C 18.989471 218.044876 20.183119 221.921509 20.923973 223.436981 C 21.152445 223.904327 21.845587 225.00116 22.714586 226.181229 C 23.628824 227.422745 24.574568 228.538498 25.162725 229.111801 C 25.887381 229.818161 27.071785 230.80777 28.323338 231.735336 C 29.448549 232.569275 30.452126 233.218185 30.783096 233.38591 C 31.983232 233.994064 33.806355 234.74176 34.913391 235.141663 C 35.912918 235.187927 37.325302 235.234634 39.101448 235.279327 C 42.943436 235.375961 48.346428 235.45993 54.969719 235.525955 C 68.584145 235.661682 86.550865 235.714508 105.458992 235.6689 C 112.530746 235.65184 115.457588 235.644669 118.960808 235.63559 C 148.697968 235.558578 159.681213 235.476822 166.809433 235.246948 C 170.232834 235.136551 172.32576 234.995377 173.472229 234.836121 C 173.552002 234.825043 173.612213 234.816223 173.655518 234.809784 C 173.764923 234.764694 173.925537 234.696915 174.212845 234.574783 C 176.140549 233.75528 179.509491 231.926666 180.937149 230.944412 C 181.577744 230.503662 183.994827 228.015533 185.13797 226.419174 C 185.703781 225.629028 186.498032 224.300232 187.226425 222.891327 C 187.895782 221.596634 188.400269 220.438934 188.534988 220.011002 C 189.074066 218.298645 189.461105 215.048035 189.428223 211.173508 C 189.413376 209.423508 189.270126 207.369568 189.029434 205.450684 C 188.867996 204.16362 188.675568 203.058701 188.522415 202.377274 C 188.478806 202.283386 188.429855 202.179077 188.3759 202.065262 C 187.971909 201.213074 187.377563 200.017227 186.616608 198.528732 C 185.044052 195.452713 182.832306 191.267349 180.130676 186.255692 Z"/>
    </g>
    <path id="Shape-copy" fill="#b31942" fill-rule="evenodd" stroke="none" d="M 96.264679 155.98526 C 93.644104 155.977142 90.388519 155.408081 89.030029 154.720703 C 87.671509 154.033295 85.493927 151.902405 84.190887 149.985443 C 82.272491 147.163086 81.907623 145.578644 82.27301 141.657104 C 82.622803 137.903046 83.434082 136.10437 85.881378 133.657104 C 88.782227 130.756226 89.570648 130.5 95.596069 130.5 C 101.929474 130.5 102.274628 130.631989 105.691498 134.360443 C 109.033661 138.007355 109.203857 138.528107 108.768738 143.775208 C 108.368134 148.605804 107.833923 149.764099 104.668762 152.664764 C 101.600281 155.476776 100.281921 155.997681 96.264679 155.98526 Z M 103.252502 105 C 100.727783 105 98.297791 104.235504 96.614868 102.911713 C 95.154724 101.763153 93.24646 99.443481 92.374298 97.756927 C 91.365509 95.806152 90.993378 93.428162 91.351532 91.221191 C 91.661163 89.31311 92.720184 86.861694 93.704895 85.77359 C 94.689606 84.685486 96.711487 83.166321 98.197968 82.397614 C 99.684479 81.628937 102.160522 81.001678 103.700348 81.003723 C 105.240143 81.005798 107.973724 81.906006 109.774933 83.004211 C 111.576141 84.102386 113.488647 86.154999 114.024933 87.565552 C 114.561218 88.976105 115 91.728851 115 93.682739 C 115 96.476105 114.170349 98.064972 111.117645 101.117645 C 107.907562 104.327728 106.545654 105 103.252502 105 Z"/>
</svg>
